<svg xmlns="http://www.w3.org/2000/svg" viewBox="0 0 300 300">
<rect width="300" height="300" rx="40" fill="#1f2f4a"/>
<path d="M0 60 Q50 40 100 60 T200 60 T300 60" stroke="#5dade2" stroke-width="8" fill="none"/>
<path d="M0 100 Q50 80 100 100 T200 100 T300 100" stroke="#58d68d" stroke-width="8" fill="none"/>
<path d="M0 140 Q50 120 100 140 T200 140 T300 140" stroke="#f4d03f" stroke-width="8" fill="none"/>
<path d="M0 180 Q50 160 100 180 T200 180 T300 180" stroke="#e67e22" stroke-width="8" fill="none"/>
<path d="M0 220 Q50 200 100 220 T200 220 T300 220" stroke="#e74c3c" stroke-width="8" fill="none"/>
<polygon points="70,220 120,100 170,220" fill="#ffffff"/>
<rect x="200" y="100" width="20" height="120" fill="#ffffff"/>
<path d="M210 220 Q230 230 220 250 Q200 260 190 240 Q200 230 210 220" fill="#27ae60"/>
<text x="150" y="280" text-anchor="middle" font-size="36" font-family="Arial" font-weight="bold" fill="#f39c12">ALWAN</text>
</svg>